<?xml version="1.0" standalone="no"?>
<!DOCTYPE svg PUBLIC "-//W3C//DTD SVG 20010904//EN"
 "http://www.w3.org/TR/2001/REC-SVG-20010904/DTD/svg10.dtd">
<svg version="1.0" xmlns="http://www.w3.org/2000/svg"
 width="900.000000pt" height="900.000000pt" viewBox="0 0 900.000000 900.000000"
 preserveAspectRatio="xMidYMid meet">
<metadata>
Created by potrace 1.11, written by Peter Selinger 2001-2013
</metadata>
<g transform="translate(0.000000,900.000000) scale(0.100000,-0.100000)"
fill="#000000" stroke="none">
<path d="M4437 8934 c-1 -1 -69 -4 -152 -8 -166 -7 -189 -9 -355 -31 -372 -50
-768 -153 -1090 -285 -119 -49 -479 -218 -490 -231 -3 -3 -50 -32 -105 -64
-55 -32 -149 -91 -209 -132 -59 -40 -112 -73 -117 -73 -4 0 -12 -6 -16 -13 -4
-6 -26 -25 -48 -41 -148 -108 -307 -248 -480 -421 -281 -280 -469 -520 -682
-870 -79 -130 -213 -396 -282 -562 -112 -266 -240 -699 -267 -901 -3 -26 -7
-49 -9 -52 -2 -3 -6 -29 -10 -59 -4 -30 -9 -63 -11 -75 -4 -20 -13 -96 -19
-161 -2 -16 -7 -68 -11 -115 -9 -89 -9 -566 0 -660 16 -174 21 -220 31 -280 3
-19 7 -51 9 -71 2 -20 7 -47 11 -59 4 -13 9 -39 10 -59 2 -20 4 -36 5 -36 2 0
9 -33 15 -65 2 -14 4 -25 5 -25 1 0 3 -9 5 -20 3 -18 20 -91 30 -135 2 -8 4
-15 6 -15 1 0 3 -9 5 -20 4 -31 11 -55 33 -120 11 -32 17 -63 15 -67 -3 -4 0
-8 7 -8 7 0 10 -3 6 -6 -3 -4 0 -21 8 -39 7 -19 11 -36 7 -39 -3 -3 -1 -6 5
-6 9 0 11 -6 15 -49 1 -11 6 -17 10 -15 4 3 8 -2 8 -10 0 -8 5 -27 12 -43 6
-15 12 -30 13 -33 1 -3 5 -13 8 -22 4 -10 10 -26 14 -35 3 -10 7 -20 8 -23 1
-3 6 -16 12 -30 34 -78 48 -115 47 -120 -1 -3 7 -17 18 -33 11 -15 17 -27 14
-27 -8 0 141 -293 185 -367 21 -33 35 -64 32 -67 -4 -3 -2 -6 4 -6 6 0 16 -13
23 -30 7 -16 16 -30 21 -30 5 0 9 -6 9 -13 0 -7 9 -23 20 -35 11 -12 20 -26
20 -32 0 -5 5 -10 11 -10 5 0 7 -5 4 -10 -3 -6 1 -13 9 -16 9 -3 16 -12 16
-18 0 -7 9 -22 20 -34 11 -12 20 -25 20 -30 0 -4 9 -18 20 -30 12 -12 18 -22
15 -22 -3 0 4 -11 17 -24 13 -14 41 -50 63 -81 22 -31 52 -69 67 -86 15 -16
25 -29 23 -29 -5 0 36 -47 92 -106 17 -19 29 -34 26 -34 -3 0 26 -31 64 -70
39 -38 68 -70 65 -70 -2 0 19 -22 47 -50 28 -27 57 -50 63 -50 6 0 9 -3 5 -6
-8 -8 16 -33 25 -27 5 2 8 -3 8 -11 0 -9 4 -16 8 -16 5 0 32 -21 60 -47 83
-78 122 -112 122 -106 0 4 11 -7 25 -23 14 -16 25 -25 25 -21 0 4 10 -3 22
-15 24 -25 155 -124 220 -168 21 -14 38 -29 38 -33 0 -5 4 -6 8 -3 5 3 20 -6
35 -20 15 -14 27 -21 27 -17 0 4 4 3 8 -3 9 -14 213 -140 220 -136 3 2 8 0 11
-5 9 -12 38 -29 101 -60 30 -15 58 -32 62 -38 5 -6 8 -6 8 0 0 7 3 7 8 0 6 -8
96 -56 112 -60 3 0 29 -13 58 -28 28 -15 52 -24 52 -21 0 4 9 -1 20 -11 11
-10 20 -15 20 -11 0 4 10 1 23 -6 12 -7 25 -11 30 -10 4 1 7 -2 7 -6 0 -5 6
-9 13 -9 6 0 30 -8 52 -18 22 -10 42 -19 45 -20 3 -1 12 -5 20 -8 73 -30 329
-109 341 -104 3 1 12 -3 20 -10 13 -11 42 -19 94 -28 11 -2 20 -4 20 -5 0 -2
41 -12 100 -24 11 -2 39 -9 63 -16 24 -6 55 -13 70 -15 15 -2 38 -6 52 -9 14
-4 41 -9 60 -11 19 -2 46 -6 59 -9 55 -12 207 -30 371 -43 107 -8 529 -8 635
0 147 12 200 17 220 21 12 2 48 7 80 11 33 4 69 9 80 11 11 3 36 7 55 10 53 8
143 26 160 31 8 3 22 7 30 8 8 1 29 5 45 9 17 3 39 8 50 10 11 2 54 14 95 26
41 12 84 24 95 27 38 9 180 56 190 62 6 3 15 6 22 7 25 4 89 27 101 37 6 5 12
6 12 3 0 -4 10 -1 23 6 12 7 24 13 27 13 3 1 19 7 35 14 17 7 48 19 69 27 22
8 45 19 53 25 7 6 13 9 13 6 0 -6 282 132 290 142 3 3 10 7 17 8 7 2 36 17 65
34 29 17 80 48 113 67 33 20 63 40 66 45 3 5 9 8 13 8 9 -2 120 70 128 83 4 6
8 7 8 3 0 -9 73 43 78 56 2 4 9 7 16 7 7 0 23 11 36 25 13 14 25 23 28 21 3
-4 15 4 65 48 12 10 38 30 57 45 43 32 93 76 137 118 18 18 33 30 33 27 0 -3
11 5 23 18 13 13 49 47 80 76 32 29 57 57 57 63 0 5 3 8 8 7 8 -3 102 93 102
105 0 4 5 5 10 2 6 -3 10 -2 10 2 0 5 15 25 33 44 17 19 55 62 82 94 28 32 58
66 68 74 9 9 17 19 17 23 0 5 7 16 16 26 61 69 76 88 91 113 10 16 21 29 25
29 4 0 8 7 8 15 0 8 4 15 8 15 5 0 16 16 25 35 9 19 21 35 27 35 5 0 10 7 10
15 0 8 5 15 10 15 6 0 10 7 10 15 0 8 3 15 8 15 4 0 21 23 37 50 17 27 34 50
38 50 5 0 5 5 2 10 -3 6 -1 10 5 10 6 0 9 4 6 9 -3 5 1 14 9 21 8 7 15 18 15
26 0 7 7 17 16 22 8 5 16 15 17 23 4 22 40 79 51 79 5 0 6 3 3 7 -4 3 0 15 10
25 9 10 13 18 9 18 -4 0 1 12 12 28 10 15 32 54 47 87 16 33 34 63 40 67 5 4
7 8 2 8 -4 0 -1 10 7 23 8 12 15 24 14 27 0 3 14 37 32 75 17 39 36 79 40 90
10 21 42 97 45 105 1 3 6 20 10 38 4 17 12 32 17 32 5 0 7 4 3 10 -3 5 -1 17
4 27 15 28 24 57 22 69 0 6 5 17 13 23 8 7 12 19 9 27 -3 8 -1 14 5 14 5 0 9
6 9 13 -1 10 5 33 30 117 2 8 4 16 3 18 0 1 6 15 14 31 9 16 13 31 10 34 -3 3
-2 12 2 19 5 7 9 18 10 23 1 6 7 30 14 55 7 25 14 56 16 70 2 14 5 32 7 40 2
8 9 42 16 75 7 33 15 71 18 85 4 14 6 28 5 32 -1 4 3 28 8 55 6 26 12 66 14
88 3 22 7 56 10 75 11 69 16 116 22 200 3 47 7 117 9 155 10 154 5 430 -10
565 -2 25 -7 70 -10 100 -5 51 -22 183 -31 240 -2 14 -6 39 -8 57 -2 17 -6 35
-9 40 -3 5 -8 29 -11 53 -6 47 -13 85 -16 85 -2 0 -9 30 -15 65 -2 14 -14 59
-25 100 -12 41 -24 86 -26 100 -3 14 -12 48 -20 75 -20 64 -21 68 -23 77 -1 8
-26 77 -41 113 -4 11 -18 49 -31 85 -12 36 -26 70 -30 76 -5 6 -10 19 -12 30
-3 19 -10 36 -58 139 -12 28 -22 53 -21 58 1 4 -3 7 -8 7 -6 0 -10 7 -10 15 0
32 -240 474 -262 483 -5 2 -8 8 -8 12 0 11 -139 216 -204 300 -95 124 -121
156 -205 250 -271 304 -553 550 -876 764 -49 32 -96 65 -103 73 -7 7 -17 13
-21 13 -5 0 -57 28 -117 63 -598 346 -1299 552 -1989 583 -130 6 -266 10 -268
8z"/>
</g>
</svg>
